<svg width="209" height="15" viewBox="0 0 209 15" fill="none" xmlns="http://www.w3.org/2000/svg">
<path d="M11.7828 7.30273C11.7828 9.44727 11.191 11.0996 10.0074 12.2598C8.82965 13.4199 7.17145 14 5.03278 14H0.875549V1.15039H5.32281C7.38531 1.15039 8.97614 1.67773 10.0953 2.73242C11.2203 3.78711 11.7828 5.31055 11.7828 7.30273ZM8.17926 7.42578C8.17926 6.24805 7.94489 5.375 7.47614 4.80664C7.01324 4.23828 6.30719 3.9541 5.35797 3.9541H4.34723V11.1523H5.12067C6.17535 11.1523 6.94879 10.8477 7.44098 10.2383C7.93317 9.62305 8.17926 8.68555 8.17926 7.42578ZM22.3381 14L21.7053 11.5918H17.5305L16.8801 14H13.0656L17.258 1.09766H21.8898L26.135 14H22.3381ZM20.9846 8.74414L20.4309 6.63477C20.302 6.16602 20.1438 5.55957 19.9563 4.81543C19.7746 4.07129 19.6545 3.53809 19.5959 3.21582C19.5432 3.51465 19.4377 4.00684 19.2795 4.69238C19.1272 5.37793 18.7844 6.72852 18.2512 8.74414H20.9846ZM33.5614 14H30.0897V3.98926H26.952V1.15039H36.6903V3.98926H33.5614V14ZM46.5161 14H38.8872V1.15039H46.5161V3.93652H42.3589V5.95801H46.2085V8.74414H42.3589V11.1699H46.5161V14ZM48.4933 12.541C48.4933 12.002 48.6515 11.5859 48.9679 11.293C49.2902 11 49.756 10.8535 50.3654 10.8535C50.9454 10.8535 51.3907 11 51.7013 11.293C52.0118 11.5859 52.1671 12.002 52.1671 12.541C52.1671 13.0684 52.006 13.4814 51.6837 13.7803C51.3673 14.0732 50.9279 14.2197 50.3654 14.2197C49.7853 14.2197 49.3282 14.0732 48.9943 13.7803C48.6603 13.4873 48.4933 13.0742 48.4933 12.541Z" fill="#F48C7F"/>
<path d="M54.6892 14V1.15039H58.1785V14H54.6892ZM73.559 14H69.0063L64.3129 4.94727H64.2338C64.3451 6.37109 64.4008 7.45801 64.4008 8.20801V14H61.3246V1.15039H65.8598L70.5355 10.0801H70.5883C70.5063 8.78516 70.4652 7.74512 70.4652 6.95996V1.15039H73.559V14ZM82.3653 14H78.8936V3.98926H75.7559V1.15039H85.4942V3.98926H82.3653V14ZM95.32 14H87.6911V1.15039H95.32V3.93652H91.1628V5.95801H95.0124V8.74414H91.1628V11.1699H95.32V14ZM101.402 9.32422V14H97.93V1.15039H102.14C105.632 1.15039 107.378 2.41602 107.378 4.94727C107.378 6.43555 106.652 7.58691 105.199 8.40137L108.943 14H105.005L102.281 9.32422H101.402ZM101.402 6.71387H102.052C103.265 6.71387 103.871 6.17773 103.871 5.10547C103.871 4.2207 103.277 3.77832 102.087 3.77832H101.402V6.71387ZM122.706 14H118.153L113.46 4.94727H113.381C113.492 6.37109 113.548 7.45801 113.548 8.20801V14H110.472V1.15039H115.007L119.683 10.0801H119.735C119.653 8.78516 119.612 7.74512 119.612 6.95996V1.15039H122.706V14ZM133.727 14L133.094 11.5918H128.92L128.269 14H124.455L128.647 1.09766H133.279L137.524 14H133.727ZM132.374 8.74414L131.82 6.63477C131.691 6.16602 131.533 5.55957 131.345 4.81543C131.164 4.07129 131.044 3.53809 130.985 3.21582C130.932 3.51465 130.827 4.00684 130.669 4.69238C130.516 5.37793 130.173 6.72852 129.64 8.74414H132.374ZM144.95 14H141.479V3.98926H138.341V1.15039H148.079V3.98926H144.95V14ZM150.276 14V1.15039H153.766V14H150.276ZM168.935 7.55762C168.935 9.71973 168.405 11.3633 167.344 12.4883C166.284 13.6133 164.731 14.1758 162.686 14.1758C160.67 14.1758 159.124 13.6104 158.045 12.4795C156.973 11.3486 156.437 9.70215 156.437 7.54004C156.437 5.40137 156.97 3.76953 158.037 2.64453C159.109 1.51367 160.665 0.948242 162.704 0.948242C164.749 0.948242 166.298 1.50781 167.353 2.62695C168.408 3.74609 168.935 5.38965 168.935 7.55762ZM160.093 7.55762C160.093 10.042 160.958 11.2842 162.686 11.2842C163.565 11.2842 164.215 10.9824 164.637 10.3789C165.065 9.77539 165.279 8.83496 165.279 7.55762C165.279 6.27441 165.062 5.32812 164.628 4.71875C164.201 4.10352 163.559 3.7959 162.704 3.7959C160.963 3.7959 160.093 5.0498 160.093 7.55762ZM183.85 14H179.297L174.604 4.94727H174.525C174.636 6.37109 174.692 7.45801 174.692 8.20801V14H171.615V1.15039H176.151L180.826 10.0801H180.879C180.797 8.78516 180.756 7.74512 180.756 6.95996V1.15039H183.85V14ZM194.871 14L194.238 11.5918H190.063L189.413 14H185.598L189.791 1.09766H194.423L198.668 14H194.871ZM193.517 8.74414L192.964 6.63477C192.835 6.16602 192.677 5.55957 192.489 4.81543C192.307 4.07129 192.187 3.53809 192.129 3.21582C192.076 3.51465 191.971 4.00684 191.812 4.69238C191.66 5.37793 191.317 6.72852 190.784 8.74414H193.517ZM200.425 14V1.15039H203.897V11.1963H208.845V14H200.425Z" fill="#34394B"/>
</svg>
